<svg xmlns="http://www.w3.org/2000/svg" version="1.1" xmlns:xlink="http://www.w3.org/1999/xlink" width="430" height="512"><svg width="430" height="512" viewBox="0 0 430 512" fill="none" xmlns="http://www.w3.org/2000/svg">
<path d="M425.227 366.021C432.024 348.119 430.669 315.958 426.693 299.611C410.781 244.811 359.048 234.646 283.894 267.349C264.438 245.694 206.089 217.858 218.909 256C231.73 294.152 181.332 308.01 159.226 302.26C137.119 296.52 103.959 273.982 119.43 236.422C112.804 277.956 172.046 298.287 185.75 285.031C174.696 279.281 150.823 266.466 154.357 227.581C161.434 161.291 211.39 174.547 229.511 182.063C266.656 197.086 294.947 195.319 313.068 180.297C282.569 176.324 276.816 160.408 257.37 140.529C237.914 120.64 219.793 109.151 206.089 112.241C208.74 95.453 205.648 66.2818 182.216 53.0259C158.784 39.7699 148.172 24.3063 141.978 0.00195312C116.428 45.9714 125.484 72.7041 143.745 96.9984C172.789 140.539 103.166 168.376 74.3434 247.239C51.8754 310.89 56.0819 376.518 111.7 447.203C104.732 444.223 95.1448 436.476 87.8563 428.518C84.8746 425.207 83.5093 425.658 79.2024 427.314C68.2595 431.298 31.4554 433.616 16.8683 433.285C2.28117 432.954 -2.19636 436.897 0.955984 444.885C19.85 491.617 126.949 534.034 194.203 499.234C277.579 532.399 383.976 491.196 423.541 407.064C423.822 406.462 423.169 405.91 422.507 406.522C397.168 432.081 348.306 468.376 279.667 471.186C335.376 459.365 399.366 411.419 425.227 366.021ZM298.802 413.105C284.587 418.644 271.084 418.293 269.206 413.245C266.225 405.248 273.353 389.824 287.568 384.285C301.784 378.746 315.829 380.712 318.931 388.67C322.033 396.628 313.018 407.566 298.802 413.105Z" fill="#3FC0F0"></path>
</svg><style>@media (prefers-color-scheme: light) { :root { filter: none; } }
@media (prefers-color-scheme: dark) { :root { filter: none; } }
</style></svg>