<svg width="28" height="23" viewBox="0 0 28 23" fill="none" xmlns="http://www.w3.org/2000/svg">
<path d="M27.1758 11.7041C27.1757 12.192 26.9773 12.6585 26.626 13.002L17.335 22.082L17.332 22.084L17.1943 22.2021C16.8606 22.4606 16.4455 22.6013 16.0176 22.5977C15.5288 22.5934 15.0601 22.4017 14.7129 22.0625C14.3654 21.7229 14.1674 21.2618 14.1631 20.7793C14.1588 20.2968 14.349 19.8328 14.6904 19.4873L14.6924 19.4844L20.7793 13.5381L2.64258 13.5381C2.14811 13.5381 1.67259 13.346 1.32129 13.0029C0.969813 12.6595 0.770553 12.1921 0.770507 11.7041C0.770507 11.216 0.969772 10.7488 1.32129 10.4053C1.6726 10.0621 2.14803 9.87012 2.64258 9.87012L20.7793 9.87012L14.6963 3.9248L14.6953 3.92578C14.5165 3.75692 14.3739 3.55408 14.2754 3.33008C14.177 3.10609 14.1243 2.86519 14.1221 2.62109C14.1199 2.37693 14.1682 2.13489 14.2627 1.90918C14.3572 1.68342 14.4969 1.47858 14.6729 1.30664C14.8488 1.13475 15.0575 0.999003 15.2871 0.907226C15.5166 0.815499 15.7621 0.769412 16.0098 0.771484C16.2574 0.773587 16.5026 0.823334 16.7305 0.918945C16.9584 1.01463 17.165 1.1542 17.3379 1.3291L26.626 10.4053L26.751 10.54C27.0243 10.8662 27.1758 11.2771 27.1758 11.7041Z" fill="white" stroke="white" stroke-width="0.457895"/>
</svg>
