<svg width="48" height="48" viewBox="0 0 48 48" fill="none" xmlns="http://www.w3.org/2000/svg">
<path d="M2.98941 46.8848C6.32692 47.6346 9.73902 48.0014 13.1596 47.9781C22.484 48.3061 31.5597 44.9335 38.4072 38.5961C51.9082 24.9426 46.9756 3.94108 46.8231 3.05119C46.7183 2.57856 46.4809 2.14565 46.1386 1.80334C45.7963 1.46104 45.3634 1.22357 44.8907 1.11885C41.5522 0.375524 38.1408 0.00880137 34.7205 0.0255487C30.0858 -0.151284 25.4619 0.591201 21.1155 2.21018C16.7691 3.82916 12.7863 6.2926 9.39665 9.45843C-4.1806 23.0611 0.904514 44.0626 1.05707 44.9525C1.16179 45.4251 1.39926 45.858 1.74156 46.2003C2.08387 46.5427 2.51678 46.7801 2.98941 46.8848ZM13.0071 13.0689C18.8801 7.69532 26.6396 4.86204 34.5934 5.18694C37.1494 5.18058 39.7013 5.39324 42.221 5.82257C43.0092 10.5772 44.5348 25.324 34.9493 34.9094C29.0364 40.3205 21.2181 43.1644 13.2105 42.8168C10.7136 42.8204 8.221 42.6078 5.7608 42.1811C4.94718 37.4011 3.42164 22.6797 13.0071 13.0689Z" fill="#4DDBFF"/>
<path d="M11.9648 32.3668L15.5753 35.9772L20.1264 31.4261L24.6776 35.9772L28.288 32.3668L23.7114 27.8156L27.7541 23.773L32.3053 28.3496L35.9157 24.7391L31.3391 20.188L35.9157 15.6368L32.3053 12.0264L27.7541 16.603L23.2029 12.0264L19.5925 15.6368L24.1691 20.188L20.1264 24.2306L15.5753 19.654L11.9648 23.2645L16.5414 27.8156L11.9648 32.3668Z" fill="#4DDBFF"/>
</svg>
