<svg width="72" height="48" viewBox="0 0 72 48" fill="none" xmlns="http://www.w3.org/2000/svg">
<path d="M48 24C48 27.1826 46.7357 30.2348 44.4853 32.4853C42.2348 34.7357 39.1826 36 36 36C32.8174 36 29.7652 34.7357 27.5147 32.4853C25.2643 30.2348 24 27.1826 24 24C24 20.8174 25.2643 17.7652 27.5147 15.5147C29.7652 13.2643 32.8174 12 36 12C39.1826 12 42.2348 13.2643 44.4853 15.5147C46.7357 17.7652 48 20.8174 48 24ZM42 24C42 22.4087 41.3679 20.8826 40.2426 19.7574C39.1174 18.6321 37.5913 18 36 18C34.4087 18 32.8826 18.6321 31.7574 19.7574C30.6321 20.8826 30 22.4087 30 24C30 25.5913 30.6321 27.1174 31.7574 28.2426C32.8826 29.3679 34.4087 30 36 30C37.5913 30 39.1174 29.3679 40.2426 28.2426C41.3679 27.1174 42 25.5913 42 24ZM0 7.5C0 3.36 3.36 0 7.5 0H64.5C68.64 0 72 3.36 72 7.5V40.5C72 44.64 68.64 48 64.5 48H7.5C3.36 48 0 44.64 0 40.5V7.5ZM7.5 6C7.10218 6 6.72064 6.15803 6.43934 6.43934C6.15804 6.72064 6 7.10218 6 7.5V12H9C9.79565 12 10.5587 11.6839 11.1213 11.1213C11.6839 10.5587 12 9.79565 12 9V6H7.5ZM6 40.5C6 41.328 6.672 42 7.5 42H12V39C12 38.2044 11.6839 37.4413 11.1213 36.8787C10.5587 36.3161 9.79565 36 9 36H6V40.5ZM18 39V42H54V39C54 36.6131 54.9482 34.3239 56.636 32.636C58.3239 30.9482 60.6131 30 63 30H66V18H63C60.6131 18 58.3239 17.0518 56.636 15.364C54.9482 13.6761 54 11.3869 54 9V6H18V9C18 11.3869 17.0518 13.6761 15.364 15.364C13.6761 17.0518 11.3869 18 9 18H6V30H9C11.3869 30 13.6761 30.9482 15.364 32.636C17.0518 34.3239 18 36.6131 18 39ZM60 42H64.5C64.8978 42 65.2794 41.842 65.5607 41.5607C65.842 41.2794 66 40.8978 66 40.5V36H63C62.2044 36 61.4413 36.3161 60.8787 36.8787C60.3161 37.4413 60 38.2044 60 39V42ZM66 12V7.5C66 7.10218 65.842 6.72064 65.5607 6.43934C65.2794 6.15803 64.8978 6 64.5 6H60V9C60 9.79565 60.3161 10.5587 60.8787 11.1213C61.4413 11.6839 62.2044 12 63 12H66Z" fill="#4DDBFF"/>
</svg>
