<svg width="54" height="48" viewBox="0 0 54 48" fill="none" xmlns="http://www.w3.org/2000/svg">
<path d="M50.0587 16.416L46.4107 5.46934C45.8815 3.87595 44.8636 2.48987 43.5016 1.50802C42.1397 0.526176 40.503 -0.00148855 38.824 3.15407e-06H14.5093C12.8304 -0.00148855 11.1936 0.526176 9.83169 1.50802C8.46975 2.48987 7.45186 3.87595 6.92267 5.46934L3.27467 16.416C2.30501 16.8217 1.47687 17.5049 0.89425 18.3798C0.311633 19.2547 0.000524332 20.2822 0 21.3333V34.6667C0 36.6747 1.128 38.4053 2.77067 39.3147C2.736 39.4907 2.66667 39.6507 2.66667 39.8347V45.3333C2.66667 46.0406 2.94762 46.7189 3.44771 47.219C3.94781 47.719 4.62609 48 5.33333 48H8C8.70724 48 9.38552 47.719 9.88562 47.219C10.3857 46.7189 10.6667 46.0406 10.6667 45.3333V40H42.6667V45.3333C42.6667 46.0406 42.9476 46.7189 43.4477 47.219C43.9478 47.719 44.6261 48 45.3333 48H48C48.7072 48 49.3855 47.719 49.8856 47.219C50.3857 46.7189 50.6667 46.0406 50.6667 45.3333V39.8347C50.6667 39.6507 50.5973 39.488 50.5627 39.3147C51.399 38.8597 52.0975 38.1881 52.5849 37.3703C53.0724 36.5526 53.3309 35.6187 53.3333 34.6667V21.3333C53.3333 19.1227 51.9787 17.224 50.0587 16.416ZM5.33333 34.6667V21.3333H48L48.0053 34.6667H5.33333ZM14.5093 5.33334H38.8213C39.9707 5.33334 40.9893 6.064 41.352 7.15734L44.3013 16H9.032L11.9787 7.15734C12.1556 6.62612 12.4952 6.16407 12.9495 5.83669C13.4037 5.50931 13.9494 5.3332 14.5093 5.33334Z" fill="#4DDBFF"/>
<path d="M12 31.999C14.2091 31.999 16 30.2082 16 27.999C16 25.7899 14.2091 23.999 12 23.999C9.79086 23.999 8 25.7899 8 27.999C8 30.2082 9.79086 31.999 12 31.999Z" fill="#4DDBFF"/>
<path d="M41.333 31.999C43.5421 31.999 45.333 30.2082 45.333 27.999C45.333 25.7899 43.5421 23.999 41.333 23.999C39.1239 23.999 37.333 25.7899 37.333 27.999C37.333 30.2082 39.1239 31.999 41.333 31.999Z" fill="#4DDBFF"/>
</svg>
