<svg width="44" height="48" viewBox="0 0 44 48" fill="none" xmlns="http://www.w3.org/2000/svg">
<path d="M5.5 42.5143H13.75V28.8C13.75 28.0229 14.014 27.3719 14.542 26.8471C15.07 26.3223 15.7227 26.059 16.5 26.0571H27.5C28.2792 26.0571 28.9327 26.3205 29.4607 26.8471C29.9887 27.3737 30.2518 28.0247 30.25 28.8V42.5143H38.5V17.8286L22 5.48571L5.5 17.8286V42.5143ZM0 42.5143V17.8286C0 16.96 0.195249 16.1371 0.585749 15.36C0.976249 14.5829 1.51433 13.9429 2.2 13.44L18.7 1.09714C19.6625 0.365714 20.7625 0 22 0C23.2375 0 24.3375 0.365714 25.3 1.09714L41.8 13.44C42.4875 13.9429 43.0265 14.5829 43.417 15.36C43.8075 16.1371 44.0018 16.96 44 17.8286V42.5143C44 44.0228 43.461 45.3147 42.383 46.3899C41.305 47.4651 40.0107 48.0018 38.5 48H27.5C26.7208 48 26.0682 47.7367 25.542 47.21C25.0158 46.6834 24.7518 46.0324 24.75 45.2571V31.5428H19.25V45.2571C19.25 46.0343 18.986 46.6862 18.458 47.2128C17.93 47.7394 17.2773 48.0018 16.5 48H5.5C3.9875 48 2.69317 47.4633 1.617 46.3899C0.540833 45.3166 0.00183333 44.0247 0 42.5143Z" fill="#4DDBFF"/>
</svg>
