<svg width="49" height="54" viewBox="0 0 49 54" fill="none" xmlns="http://www.w3.org/2000/svg">
<path d="M41.9502 16.9307C43.3277 17.0227 44.3703 18.2142 44.2783 19.5918L43.1143 37.0205V37.0215C42.895 40.3049 42.7194 43.0116 42.2949 45.1406C41.8562 47.3408 41.0929 49.2634 39.4678 50.7812C37.8439 52.2978 35.8739 52.9302 33.6475 53.2217C31.4915 53.5039 28.7751 53.5 25.4785 53.5H23.5215C20.2254 53.5 17.5084 53.5055 15.3525 53.2236C13.1258 52.9325 11.1546 52.2992 9.53027 50.7803V50.7793C7.90674 49.2621 7.14309 47.3405 6.7041 45.1406C6.38541 43.5434 6.20713 41.6216 6.0459 39.375L5.88574 37.0205L4.72168 19.5918L4.71777 19.3359C4.76144 18.0695 5.75829 17.017 7.0498 16.9307C8.34148 16.8444 9.46912 17.7554 9.68066 19.0049L9.71094 19.2588L10.874 36.6875L10.875 36.6885L11.0361 39.0557C11.1931 41.2323 11.348 42.8633 11.6074 44.1631C11.8977 45.6175 12.2727 46.3934 12.7393 46.917L12.9443 47.127L12.9463 47.1279L13.1699 47.3193C13.7248 47.75 14.5265 48.0728 16.001 48.2656C17.7575 48.4953 20.0893 48.5 23.5215 48.5H25.4785C28.9099 48.5 31.2416 48.4945 32.998 48.2646C34.6838 48.044 35.4917 47.6537 36.0557 47.127C36.6184 46.6013 37.0601 45.8256 37.3916 44.1631C37.7373 42.4294 37.8976 40.1078 38.126 36.6875L39.2891 19.2588L39.3193 19.0049C39.5309 17.7554 40.6585 16.8444 41.9502 16.9307ZM17.9277 23.2529C19.3014 23.1155 20.5265 24.1175 20.6641 25.4912L21.9287 38.1211L21.9414 38.377C21.9394 39.6439 20.9782 40.7284 19.6904 40.8574C18.4024 40.9864 17.2452 40.1137 16.9922 38.8721L16.9541 38.6191L15.6885 25.9893C15.5509 24.6154 16.5539 23.3905 17.9277 23.2529ZM31.0723 23.2529C32.4461 23.3905 33.4491 24.6154 33.3115 25.9893L32.0459 38.6191C31.9083 39.993 30.6834 40.995 29.3096 40.8574C27.9359 40.7198 26.9338 39.4948 27.0713 38.1211L28.3359 25.4912C28.4735 24.1175 29.6986 23.1155 31.0723 23.2529ZM46 10.6104L46.2559 10.623C47.5164 10.7512 48.5 11.816 48.5 13.1104C48.4999 14.4046 47.5163 15.4695 46.2559 15.5977L46 15.6104H3C1.61936 15.6104 0.500109 14.491 0.5 13.1104C0.5 11.7296 1.61929 10.6104 3 10.6104H46ZM24.8906 0.507812C26.8401 0.583241 28.7294 1.22163 30.3271 2.35059C31.9248 3.47955 33.1573 5.04696 33.8779 6.85938L34.0156 7.22559L34.0889 7.4707C34.388 8.70186 33.7115 9.98376 32.4912 10.415C31.2708 10.8462 29.9392 10.2738 29.3984 9.12793L29.3008 8.89062L29.2314 8.70703C28.8685 7.7941 28.2475 7.00417 27.4414 6.43457C26.6353 5.86495 25.6819 5.542 24.6973 5.50391L24.5 5.5C23.4459 5.5 22.4185 5.82699 21.5586 6.43457C20.6989 7.04205 20.0493 7.90003 19.6992 8.89062L19.6016 9.12793C19.0608 10.2738 17.7292 10.8462 16.5088 10.415C15.2072 9.95502 14.5246 8.52728 14.9844 7.22559L15.1221 6.85938C15.8427 5.04696 17.0752 3.47955 18.6729 2.35059C20.3771 1.14637 22.413 0.5 24.5 0.5L24.8906 0.507812Z" fill="#4DDBFF"/>
</svg>
