<svg width="44" height="54" viewBox="0 0 44 54" fill="none" xmlns="http://www.w3.org/2000/svg">
<path d="M39 48.499L39.2559 48.5127C40.5162 48.6408 41.4998 49.7049 41.5 50.999C41.5 52.2934 40.5164 53.3582 39.2559 53.4863L39 53.499H5.40039C4.01968 53.499 2.90039 52.3797 2.90039 50.999C2.90061 49.6185 4.01981 48.499 5.40039 48.499H39ZM38.9004 35.3994C38.9004 34.4691 38.5329 33.5734 37.8828 32.9219L37.7578 32.8027C37.4599 32.5334 37.1172 32.3175 36.7451 32.1641C36.3199 31.9887 35.8642 31.8986 35.4043 31.8994H9C8.07174 31.8994 7.18177 32.2684 6.52539 32.9248C5.86902 33.5812 5.5 34.4712 5.5 35.3994V38.8994H38.9004V35.3994ZM43.9004 38.999C43.9004 40.2985 43.3837 41.545 42.4648 42.4639C41.5459 43.3828 40.2996 43.8994 39 43.8994H5.40039C4.10083 43.8994 2.85448 43.3828 1.93555 42.4639C1.01662 41.5449 0.5 40.2986 0.5 38.999V35.3994C0.500003 33.1451 1.3952 30.9827 2.98926 29.3887C4.58332 27.7946 6.74566 26.8994 9 26.8994H35.4004V26.9004C36.5156 26.899 37.6203 27.1158 38.6514 27.541C39.555 27.9137 40.3867 28.4397 41.1104 29.0938L41.4131 29.3818L41.416 29.3838L41.708 29.6914C43.1265 31.2604 43.9004 33.3028 43.9004 35.3994V38.999Z" fill="#4DDBFF"/>
<path d="M24.5 29.4004V18.5996C24.5001 16.0651 25.4397 14.6412 26.0293 13.6094C26.4849 12.8121 26.9004 12.0405 26.9004 10.2002C26.9004 8.95377 26.4047 7.75836 25.5234 6.87695C24.697 6.05052 23.5944 5.56339 22.4326 5.50586L22.2002 5.5C20.6961 5.5 19.5467 5.95032 18.7998 6.63867C18.0865 7.29629 17.5 8.39005 17.5 10.2002C17.5 12.0406 17.9155 12.8121 18.3711 13.6094C18.9607 14.6412 19.9003 16.0651 19.9004 18.5996V29.4004C19.9002 30.7808 18.7808 31.9002 17.4004 31.9004C16.0198 31.9004 14.9006 30.7809 14.9004 29.4004V18.5996C14.9003 17.5347 14.6394 17.1586 14.0293 16.0908C13.2849 14.7882 12.5 13.1595 12.5 10.2002C12.5 7.21072 13.5216 4.70434 15.4121 2.96191C17.2692 1.25034 19.7203 0.5 22.2002 0.5L22.6807 0.511719C25.0781 0.630571 27.3531 1.63551 29.0586 3.34082C30.8777 5.15992 31.9004 7.6276 31.9004 10.2002C31.9004 13.1595 31.1155 14.7882 30.3711 16.0908C29.7609 17.1587 29.5001 17.5347 29.5 18.5996V29.4004C29.4998 30.7809 28.3806 31.9004 27 31.9004C25.6194 31.9004 24.5002 30.7809 24.5 29.4004Z" fill="#4DDBFF"/>
</svg>
