<svg width="48" height="48" viewBox="0 0 48 48" fill="none" xmlns="http://www.w3.org/2000/svg">
<path d="M24 37.3333C24.7556 37.3333 25.3893 37.0773 25.9013 36.5653C26.4133 36.0533 26.6684 35.4204 26.6667 34.6667C26.6649 33.9129 26.4089 33.28 25.8987 32.768C25.3884 32.256 24.7556 32 24 32C23.2444 32 22.6116 32.256 22.1013 32.768C21.5911 33.28 21.3351 33.9129 21.3333 34.6667C21.3316 35.4204 21.5876 36.0542 22.1013 36.568C22.6151 37.0818 23.248 37.3369 24 37.3333ZM24 26.6667C24.7556 26.6667 25.3893 26.4107 25.9013 25.8987C26.4133 25.3867 26.6684 24.7538 26.6667 24V13.3333C26.6667 12.5778 26.4107 11.9449 25.8987 11.4347C25.3867 10.9244 24.7538 10.6684 24 10.6667C23.2462 10.6649 22.6133 10.9209 22.1013 11.4347C21.5893 11.9484 21.3333 12.5813 21.3333 13.3333V24C21.3333 24.7556 21.5893 25.3893 22.1013 25.9013C22.6133 26.4133 23.2462 26.6684 24 26.6667ZM16.2 48C15.4889 48 14.8116 47.8667 14.168 47.6C13.5244 47.3333 12.9573 46.9556 12.4667 46.4667L1.53333 35.5333C1.04444 35.0444 0.666667 34.4773 0.4 33.832C0.133334 33.1867 0 32.5102 0 31.8027V16.2027C0 15.4916 0.133334 14.8142 0.4 14.1707C0.666667 13.5271 1.04444 12.96 1.53333 12.4693L12.4667 1.536C12.9556 1.04711 13.5227 0.669333 14.168 0.402667C14.8133 0.136 15.4907 0.00177778 16.2 0H31.8C32.5111 0 33.1893 0.133334 33.8347 0.4C34.48 0.666667 35.0462 1.04444 35.5333 1.53333L46.4667 12.4667C46.9556 12.9556 47.3333 13.5227 47.6 14.168C47.8667 14.8133 48 15.4907 48 16.2V31.8C48 32.5111 47.8667 33.1893 47.6 33.8347C47.3333 34.48 46.9556 35.0462 46.4667 35.5333L35.5333 46.4667C35.0444 46.9556 34.4773 47.3333 33.832 47.6C33.1867 47.8667 32.5093 48 31.8 48H16.2ZM16.2667 42.6667H31.7333L42.6667 31.7333V16.2667L31.7333 5.33333H16.2667L5.33333 16.2667V31.7333L16.2667 42.6667Z" fill="#4DDBFF"/>
</svg>
