<svg width="50" height="50" viewBox="0 0 50 50" fill="none" xmlns="http://www.w3.org/2000/svg">
<path d="M33.9443 0.753906C34.335 0.772752 34.7199 0.858922 35.082 1.00879C35.4958 1.18005 35.8719 1.43127 36.1885 1.74805C36.5051 2.06496 36.7569 2.44139 36.9277 2.85547C37.0985 3.26942 37.1855 3.71333 37.1846 4.16113V5.56738H40.9668L41.3984 5.58008C42.4034 5.64319 43.3838 5.93008 44.2666 6.42188C45.2756 6.98398 46.1238 7.79556 46.7305 8.77832L48.2217 11.1846L48.3447 11.3906C50.7991 15.665 47.9931 20.9999 43.2021 21.5049V43.6719C43.2021 46.7515 40.7071 49.25 37.627 49.25H10.0498C8.23701 49.2476 6.46433 48.716 4.94922 47.7207C3.43413 46.7254 2.2425 45.3092 1.52051 43.6465C0.798634 41.9838 0.577592 40.1467 0.884766 38.3604C1.19198 36.5739 2.01408 34.9159 3.25 33.5898L5.98633 30.6582L6.21875 30.3965C7.34553 29.0651 7.95396 27.3661 7.92383 25.6143C7.89362 23.8623 7.22687 22.1854 6.05469 20.8936L5.81348 20.6406L3.12891 17.9561V17.9551C2.94309 17.7746 2.79463 17.5593 2.69238 17.3213C2.58949 17.0817 2.5345 16.8242 2.53223 16.5635C2.52996 16.3027 2.58 16.0441 2.67871 15.8027C2.77748 15.5613 2.92396 15.3417 3.1084 15.1572C3.29272 14.973 3.51174 14.8272 3.75293 14.7285C3.99423 14.6298 4.25297 14.5798 4.51367 14.582C4.7745 14.5843 5.0328 14.6383 5.27246 14.7412C5.51087 14.8436 5.7266 14.9925 5.90723 15.1787L8.58789 17.8633L8.96094 18.2549C10.7704 20.2508 11.8001 22.8411 11.8467 25.5469C11.8932 28.2528 10.9528 30.8765 9.21289 32.9336L8.85449 33.3369L6.12207 36.2686C5.40622 37.0347 4.92927 37.9941 4.75098 39.0273C4.57279 40.0605 4.70052 41.1234 5.11816 42.085C5.53587 43.0467 6.22575 43.8654 7.10254 44.4404C7.97933 45.0154 9.00519 45.3214 10.0537 45.3213H11.5283C11.524 44.6651 11.5252 43.8732 11.5557 42.9844C11.6506 39.7224 12.0546 36.4768 12.7617 33.291L12.7627 33.2881L12.9238 32.624C13.7668 29.294 15.1294 25.8549 17.374 23.1602L17.7832 22.6875C19.8329 20.4158 22.5481 18.7849 26.0312 18.3398V8.49512C26.0312 6.44118 26.8475 4.47097 28.2998 3.01855C29.7522 1.56623 31.7224 0.750126 33.7764 0.75L33.9443 0.753906ZM33.2559 4.71582C31.3954 4.96809 29.96 6.56555 29.96 8.49512V20.1826C29.96 20.7036 29.7532 21.2039 29.3848 21.5723C29.0164 21.9404 28.5169 22.1474 27.9961 22.1475C24.5663 22.1475 22.1692 23.5383 20.3916 25.6738V25.6748C18.5515 27.8816 17.3458 30.9349 16.5889 34.1807C15.9332 36.9972 15.6396 39.8375 15.5215 42.1553L15.4805 43.1143C15.4535 43.9607 15.4501 44.7065 15.4561 45.3213H32.0527V43.6719C32.0527 40.7655 29.6958 38.4094 26.793 38.4092H23.7822C23.2614 38.4092 22.7619 38.2021 22.3936 37.834C22.0252 37.4656 21.8174 36.9653 21.8174 36.4443C21.8174 35.9235 22.0252 35.424 22.3936 35.0557C22.7619 34.6874 23.2613 34.4805 23.7822 34.4805H26.793L27.2441 34.4912C28.2967 34.543 29.3339 34.7755 30.3096 35.1797C31.4246 35.6417 32.4377 36.3193 33.291 37.1729C34.1443 38.0264 34.8216 39.0401 35.2832 40.1553C35.7446 41.2702 35.9819 42.4652 35.9814 43.6719V45.3213H37.627C38.0644 45.3213 38.4846 45.1472 38.7939 44.8379C39.1031 44.5286 39.2764 44.1092 39.2764 43.6719V19.5791C39.2765 19.0583 39.4842 18.5587 39.8525 18.1904C40.2209 17.8222 40.7203 17.6152 41.2412 17.6152H42.459L42.6494 17.6094C43.0922 17.5805 43.523 17.448 43.9072 17.2227C44.3462 16.9651 44.7084 16.595 44.9561 16.1504C45.2037 15.7056 45.3277 15.2023 45.3154 14.6934C45.3031 14.1844 45.1546 13.6882 44.8857 13.2559V13.2549L43.3945 10.8486C42.8708 10.0063 41.9532 9.49609 40.9668 9.49609H35.2207C34.6997 9.49609 34.1994 9.2883 33.8311 8.91992C33.4629 8.55158 33.2559 8.05204 33.2559 7.53125V4.71582Z" fill="#4DDBFF" stroke="#4DDBFF" stroke-width="0.5"/>
</svg>
