<svg width="215" height="256" viewBox="0 0 215 256" fill="none" xmlns="http://www.w3.org/2000/svg">
<g clip-path="url(#clip0_8154_3456)">
<path d="M211.871 182.454C215.258 173.53 214.582 157.498 212.602 149.349C204.673 122.033 178.897 116.965 141.451 133.267C131.757 122.473 102.684 108.597 109.072 127.61C115.46 146.628 90.349 153.536 79.3342 150.67C68.3195 147.809 51.7973 136.574 59.5057 117.851C56.2042 138.555 85.722 148.689 92.5499 142.081C87.0425 139.215 75.1474 132.827 76.9082 113.444C80.4347 80.3997 105.325 87.0075 114.354 90.7541C132.862 98.2423 146.958 97.362 155.987 89.8737C140.791 87.8929 137.924 79.9595 128.235 70.0502C118.541 60.1359 109.512 54.4084 102.684 55.9491C104.005 47.5805 102.464 33.0392 90.7891 26.4314C79.1141 19.8235 73.8268 12.1152 70.7405 0C58.01 22.9149 62.522 36.2406 71.6209 48.3508C86.0921 70.0552 51.4022 83.9312 37.041 123.243C25.8461 154.972 27.942 187.686 55.654 222.921C52.1825 221.435 47.4054 217.574 43.7739 213.607C42.2882 211.956 41.6079 212.181 39.462 213.007C34.0097 214.993 15.6718 216.148 8.40362 215.983C1.13549 215.818 -1.09547 217.784 0.475204 221.766C9.88926 245.061 63.2523 266.205 96.7617 248.857C138.305 265.389 191.317 244.851 211.031 202.912C211.171 202.612 210.846 202.337 210.516 202.642C197.89 215.383 173.545 233.476 139.345 234.876C167.102 228.984 198.986 205.083 211.871 182.454ZM148.879 205.924C141.796 208.685 135.068 208.51 134.133 205.994C132.647 202.007 136.199 194.319 143.282 191.558C150.365 188.796 157.363 189.777 158.909 193.743C160.454 197.71 155.962 203.163 148.879 205.924Z" fill="#3FC0F0"/>
<path d="M140.836 43.0985C145.488 43.0985 149.259 39.3272 149.259 34.6749C149.259 30.0227 145.488 26.2513 140.836 26.2513C136.183 26.2513 132.412 30.0227 132.412 34.6749C132.412 39.3272 136.183 43.0985 140.836 43.0985Z" fill="#3FC0F0"/>
<path d="M179.157 73.1565C186.503 73.1565 192.458 67.2016 192.458 59.8558C192.458 52.51 186.503 46.5551 179.157 46.5551C171.811 46.5551 165.857 52.51 165.857 59.8558C165.857 67.2016 171.811 73.1565 179.157 73.1565Z" fill="#3FC0F0"/>
</g>
<defs>
<clipPath id="clip0_8154_3456">
<rect width="214.252" height="255.22" fill="white"/>
</clipPath>
</defs>
</svg>
