<svg width="25" height="25" viewBox="0 0 25 25" fill="none" xmlns="http://www.w3.org/2000/svg">
<path d="M6.79004 0.00878906C7.12823 0.0510109 7.36501 0.225013 7.45898 0.298828C7.59926 0.409072 7.71569 0.536895 7.80469 0.644531C7.98645 0.864375 8.17016 1.14429 8.34375 1.43359C8.69667 2.02179 9.09019 2.79046 9.45312 3.55664C9.81798 4.32689 10.1647 5.12048 10.4219 5.76855C10.5499 6.09113 10.6599 6.38911 10.7402 6.63574C10.7802 6.75843 10.8171 6.88111 10.8447 6.99414C10.8668 7.08427 10.9043 7.25145 10.9043 7.43066C10.9043 8.02144 10.6841 8.53591 10.4434 8.94141C10.2018 9.34826 9.88952 9.72684 9.60352 10.0537C9.28326 10.4197 9.04304 10.672 8.77539 10.9893C8.52554 11.2854 8.35507 11.5223 8.25586 11.7207C8.18366 11.8651 8.14523 12.0693 8.44238 12.5449C8.75788 13.0497 9.28905 13.5898 9.94922 14.25C10.1968 14.4976 10.764 15.0616 11.3965 15.4883C11.714 15.7025 11.996 15.845 12.2197 15.9102C12.442 15.9749 12.4971 15.9341 12.4785 15.9434C12.6769 15.8441 12.9138 15.6737 13.21 15.4238C13.5272 15.1562 13.7795 14.916 14.1455 14.5957C14.4724 14.3097 14.851 13.9974 15.2578 13.7559C15.6633 13.5151 16.1778 13.295 16.7686 13.2949L16.9004 13.3008C17.027 13.3125 17.1376 13.338 17.2051 13.3545C17.3181 13.3821 17.4408 13.419 17.5635 13.459C17.8101 13.5393 18.1081 13.6493 18.4307 13.7773C19.0787 14.0345 19.8723 14.3812 20.6426 14.7461C21.4088 15.109 22.1774 15.5025 22.7656 15.8555C23.0549 16.0291 23.3348 16.2128 23.5547 16.3945C23.6623 16.4835 23.7901 16.6 23.9004 16.7402C23.9847 16.8476 24.1991 17.1411 24.1992 17.5596C24.1992 20.6713 21.8875 22.9216 19.6484 23.668C18.6216 24.0102 17.7099 24.1992 16.6895 24.1992C15.6867 24.1992 14.6355 24.0173 13.3359 23.6924C12.0505 23.371 10.8349 23.028 9.52441 22.3291C8.21459 21.6305 6.86281 20.605 5.22852 18.9707C3.59423 17.3364 2.56869 15.9846 1.87012 14.6748C1.17117 13.3643 0.828205 12.1487 0.506836 10.8633C0.181943 9.56371 1.02306e-05 8.51252 0 7.50977C0 6.4893 0.188988 5.57764 0.53125 4.55078C1.27761 2.31169 3.52791 0 6.63965 0L6.79004 0.00878906ZM6.23633 2.2207C4.47501 2.40738 3.1017 3.79547 2.61816 5.24609C2.3274 6.11839 2.19922 6.78933 2.19922 7.50977C2.19923 8.24795 2.33344 9.09644 2.6416 10.3291C2.9533 11.5759 3.24434 12.5762 3.81152 13.6396C4.37914 14.7039 5.25313 15.884 6.78418 17.415C8.31523 18.9461 9.49536 19.8201 10.5596 20.3877C11.623 20.9549 12.6233 21.2459 13.8701 21.5576C15.1028 21.8658 15.9513 22 16.6895 22C17.4099 22 18.0808 21.8718 18.9531 21.5811C20.404 21.0974 21.7912 19.7236 21.9775 17.9619C21.8872 17.8999 21.7737 17.8251 21.6338 17.7412C21.1339 17.4413 20.4375 17.0836 19.7002 16.7344C18.9669 16.387 18.2174 16.0597 17.6191 15.8223C17.3189 15.7031 17.0678 15.6114 16.8818 15.5508C16.8095 15.5272 16.7538 15.5117 16.7139 15.501C16.6508 15.5138 16.5441 15.5505 16.3809 15.6475C16.1547 15.7817 15.8999 15.9831 15.5938 16.251C15.3267 16.4847 14.9448 16.838 14.6289 17.1045C14.2923 17.3885 13.8965 17.6938 13.4619 17.9111C12.8099 18.2371 12.1353 18.1771 11.6045 18.0225C11.0745 17.868 10.5781 17.5895 10.166 17.3115C9.33926 16.7538 8.63974 16.0518 8.39355 15.8057C7.78754 15.1996 7.05301 14.4723 6.57715 13.7109C6.08329 12.9207 5.72742 11.8589 6.28809 10.7373C6.50538 10.3027 6.81067 9.90697 7.09473 9.57031C7.36125 9.25444 7.71456 8.87254 7.94824 8.60547C8.21611 8.29933 8.41748 8.04451 8.55176 7.81836C8.64906 7.65449 8.6846 7.54731 8.69727 7.48438C8.6865 7.44458 8.67178 7.38905 8.64844 7.31738C8.58786 7.13141 8.4961 6.88034 8.37695 6.58008C8.13955 5.98181 7.81218 5.2323 7.46484 4.49902C7.11557 3.76168 6.75793 3.0653 6.45801 2.56543C6.37373 2.42497 6.29848 2.31123 6.23633 2.2207Z" fill="#133C56"/>
</svg>
